<svg width="25" height="25" viewBox="0 0 25 25" fill="none" xmlns="http://www.w3.org/2000/svg">
<mask id="mask0_554_734" style="mask-type:alpha" maskUnits="userSpaceOnUse" x="0" y="0" width="25" height="25">
<rect x="0.5" y="0.5" width="24" height="24" fill="#D9D9D9"/>
</mask>
<g mask="url(#mask0_554_734)">
<path d="M6.3502 18.8999L3.9502 21.2999C3.53353 21.7166 3.05436 21.8101 2.5127 21.5804C1.97103 21.3507 1.7002 20.9406 1.7002 20.3499V4.0499C1.7002 3.32124 1.9597 2.6974 2.4787 2.1784C2.9977 1.6594 3.62153 1.3999 4.3502 1.3999H20.6502C21.3789 1.3999 22.0027 1.6594 22.5217 2.1784C23.0407 2.6974 23.3002 3.32124 23.3002 4.0499V16.2499C23.3002 16.9787 23.0407 17.6026 22.5217 18.1214C22.0027 18.6404 21.3789 18.8999 20.6502 18.8999H6.3502ZM7.1002 14.4999H13.8502C14.1335 14.4999 14.371 14.4041 14.5627 14.2124C14.7544 14.0207 14.8502 13.7832 14.8502 13.4999C14.8502 13.2166 14.7544 12.9791 14.5627 12.7874C14.371 12.5957 14.1335 12.4999 13.8502 12.4999H7.1002C6.81686 12.4999 6.57936 12.5957 6.3877 12.7874C6.19603 12.9791 6.1002 13.2166 6.1002 13.4999C6.1002 13.7832 6.19603 14.0207 6.3877 14.2124C6.57936 14.4041 6.81686 14.4999 7.1002 14.4999ZM7.1002 11.1249H17.9002C18.1835 11.1249 18.421 11.0291 18.6127 10.8374C18.8044 10.6457 18.9002 10.4082 18.9002 10.1249C18.9002 9.84157 18.8044 9.60407 18.6127 9.4124C18.421 9.22074 18.1835 9.1249 17.9002 9.1249H7.1002C6.81686 9.1249 6.57936 9.22074 6.3877 9.4124C6.19603 9.60407 6.1002 9.84157 6.1002 10.1249C6.1002 10.4082 6.19603 10.6457 6.3877 10.8374C6.57936 11.0291 6.81686 11.1249 7.1002 11.1249ZM7.1002 7.7499H17.9002C18.1835 7.7499 18.421 7.65407 18.6127 7.4624C18.8044 7.27074 18.9002 7.03324 18.9002 6.7499C18.9002 6.46657 18.8044 6.22907 18.6127 6.0374C18.421 5.84574 18.1835 5.7499 17.9002 5.7499H7.1002C6.81686 5.7499 6.57936 5.84574 6.3877 6.0374C6.19603 6.22907 6.1002 6.46657 6.1002 6.7499C6.1002 7.03324 6.19603 7.27074 6.3877 7.4624C6.57936 7.65407 6.81686 7.7499 7.1002 7.7499Z" fill="#1C1B1F"/>
</g>
</svg>
