<svg width="100" height="48" viewBox="0 0 100 48" fill="none" xmlns="http://www.w3.org/2000/svg">
<mask id="path-1-inside-1_849_1214" fill="white">
<path d="M0 0H100V48H0V0Z"/>
</mask>
<path d="M100 47H0V49H100V47Z" fill="#F8CF41" mask="url(#path-1-inside-1_849_1214)"/>
<path d="M22.648 18.92V21.176H17.704V35H15.256V21.176H10.336V18.92H22.648ZM28.7703 35.288C25.3623 35.288 22.8663 32.504 22.8663 29.096C22.8663 25.736 25.5543 22.952 29.1303 22.952C32.6823 22.952 35.3943 25.592 35.3943 29.096V35H33.1383V32.936C32.2503 34.376 30.6903 35.288 28.7703 35.288ZM29.1303 33.032C31.3383 33.032 33.0183 31.256 33.0183 29.12C33.0183 26.96 31.3383 25.184 29.1303 25.184C26.9463 25.184 25.2423 26.96 25.2423 29.12C25.2423 31.256 26.9463 33.032 29.1303 33.032ZM41.1738 35H38.7978V27.992C38.7978 25.136 40.4298 23 43.5018 23C44.2458 23 45.0138 23.144 45.6138 23.432V25.784C45.0378 25.448 44.3658 25.28 43.7178 25.28C42.1338 25.28 41.1738 26.36 41.1738 28.088V35ZM52.5124 35.288C49.1044 35.288 46.6084 32.504 46.6084 29.096C46.6084 25.736 49.2964 22.952 52.8724 22.952C56.4244 22.952 59.1364 25.592 59.1364 29.096V35H56.8804V32.936C55.9924 34.376 54.4324 35.288 52.5124 35.288ZM52.8724 33.032C55.0804 33.032 56.7604 31.256 56.7604 29.12C56.7604 26.96 55.0804 25.184 52.8724 25.184C50.6884 25.184 48.9844 26.96 48.9844 29.12C48.9844 31.256 50.6884 33.032 52.8724 33.032ZM64.2199 20.912C63.3559 20.912 62.6599 20.216 62.6599 19.352C62.6599 18.488 63.3559 17.768 64.2199 17.768C65.0839 17.768 65.7559 18.488 65.7559 19.352C65.7559 20.216 65.0839 20.912 64.2199 20.912ZM63.0199 23.24H65.3959V35.984C65.3959 38.72 63.7159 40.616 60.6919 40.616L60.5959 38.36C62.1799 38.36 63.0199 37.352 63.0199 35.912V23.24ZM73.9578 35.288C70.5498 35.288 68.0538 32.504 68.0538 29.096C68.0538 25.736 70.7418 22.952 74.3178 22.952C77.8698 22.952 80.5818 25.592 80.5818 29.096V35H78.3258V32.936C77.4378 34.376 75.8778 35.288 73.9578 35.288ZM74.3178 33.032C76.5258 33.032 78.2058 31.256 78.2058 29.12C78.2058 26.96 76.5258 25.184 74.3178 25.184C72.1338 25.184 70.4298 26.96 70.4298 29.12C70.4298 31.256 72.1338 33.032 74.3178 33.032ZM85.7613 35.216C84.8973 35.216 84.2013 34.52 84.2013 33.656C84.2013 32.792 84.8973 32.12 85.7613 32.12C86.6253 32.12 87.3213 32.792 87.3213 33.656C87.3213 34.52 86.6253 35.216 85.7613 35.216Z" fill="#16516D"/>
</svg>
